<svg width="128" height="128" xmlns="http://www.w3.org/2000/svg"  xmlns:xlink="http://www.w3.org/1999/xlink">
  <defs>
    <path id="substructure" d="M64 128c35.346 0 64-28.654 64-64 0-4.603-.878-7.184-2.395-8.621-4.728-4.48-42.02-40.372-52.056-50.693C70.725 1.78 67.6 0 64 0 28.654 0 0 28.654 0 64c0 35.346 28.654 64 64 64z"/>
    <path id="colored-background" d="M64 128c35.346 0 64-28.654 64-64 0-18.952-14.88-3.623-27.97-15.342C88.706 38.521 80.395 0 64 0 28.654 0 0 28.654 0 64c0 35.346 28.654 64 64 64z"/>
    <path id="letters" d="M68.915 73.3c0 2.776-.712 5.27-2.137 7.482-1.425 2.213-3.51 3.945-6.255 5.197-2.746 1.253-6.001 1.879-9.766 1.879-4.513 0-8.236-.856-11.17-2.567a14.904 14.904 0 0 1-5.069-4.931c-1.3-2.056-1.95-4.055-1.95-5.996 0-1.127.39-2.092 1.17-2.896.78-.804 1.773-1.205 2.98-1.205.977 0 1.804.313 2.48.939.676.626 1.253 1.555 1.731 2.786.583 1.461 1.212 2.682 1.888 3.663.676.981 1.628 1.79 2.855 2.427 1.227.636 2.839.955 4.836.955 2.745 0 4.976-.642 6.692-1.926 1.716-1.283 2.574-2.885 2.574-4.806 0-1.523-.463-2.76-1.388-3.71-.926-.95-2.122-1.675-3.588-2.176-1.467-.5-3.427-1.033-5.881-1.596-3.287-.773-6.038-1.675-8.253-2.708-2.215-1.034-3.972-2.442-5.272-4.227-1.3-1.785-1.95-4.002-1.95-6.653 0-2.526.686-4.77 2.059-6.731 1.373-1.962 3.359-3.47 5.959-4.524 2.6-1.055 5.657-1.582 9.173-1.582 2.807 0 5.236.35 7.285 1.05 2.048.699 3.749 1.627 5.1 2.786 1.353 1.158 2.34 2.374 2.965 3.647.624 1.273.936 2.515.936 3.726 0 1.106-.39 2.103-1.17 2.99-.78.887-1.753 1.33-2.918 1.33-1.06 0-1.866-.266-2.417-.798-.552-.532-1.15-1.404-1.794-2.614-.832-1.733-1.83-3.084-2.996-4.055-1.164-.97-3.036-1.455-5.615-1.455-2.392 0-4.322.527-5.788 1.58-1.466 1.055-2.2 2.323-2.2 3.805 0 .918.25 1.711.75 2.379.498.668 1.185 1.242 2.058 1.722.874.48 1.758.856 2.652 1.127.895.271 2.372.668 4.43 1.19 2.58.605 4.915 1.273 7.005 2.004 2.09.73 3.869 1.617 5.335 2.66a10.936 10.936 0 0 1 3.432 3.961c.822 1.597 1.232 3.554 1.232 5.87zm7.738-19.443h.936v-5.134c0-1.378.036-2.458.109-3.24.073-.784.276-1.457.608-2.02a3.845 3.845 0 0 1 1.436-1.425 4.06 4.06 0 0 1 2.09-.548c1.081 0 2.059.407 2.933 1.221a3.62 3.62 0 0 1 1.107 1.988c.156.783.234 1.895.234 3.335v5.823h3.12c1.207 0 2.127.287 2.761.861.635.574.952 1.31.952 2.207 0 1.148-.453 1.952-1.357 2.411-.905.46-2.2.689-3.885.689h-1.59v15.717c0 1.335.046 2.363.14 3.084.093.72.343 1.304.748 1.753.406.449 1.066.673 1.982.673.499 0 1.175-.089 2.028-.266.852-.178 1.518-.266 1.996-.266.687 0 1.305.276 1.857.83.55.552.826 1.236.826 2.05 0 1.378-.748 2.432-2.246 3.162s-3.65 1.096-6.458 1.096c-2.663 0-4.68-.449-6.053-1.346-1.373-.898-2.272-2.14-2.699-3.726-.426-1.586-.64-3.705-.64-6.356V60.025h-1.122c-1.228 0-2.164-.292-2.808-.877-.645-.584-.968-1.325-.968-2.223 0-.897.338-1.633 1.014-2.207.676-.574 1.66-.86 2.949-.86z"/>
  </defs>
  <g>
    <use fill="#edecec" xlink:href="#substructure"/>
    <use fill="red" xlink:href="#colored-background"/>
    <use fill="#fff" xlink:href="#letters" />
  </g>
</svg>
